<svg width="58" height="58" viewBox="0 0 58 58" fill="none" xmlns="http://www.w3.org/2000/svg">
<rect width="58" height="58" rx="29" fill="#E91E1E"/>
<path d="M30.1768 39H27.3554C26.8841 39 26.5007 38.5866 26.5007 38.0784V31.2154H24.8546C24.3834 31.2154 24 30.8019 24 30.2938V27.353C24 26.8448 24.3834 26.4314 24.8546 26.4314H26.5007V24.9587C26.5007 23.4986 26.9259 22.2563 27.7301 21.3664C28.538 20.4724 29.667 20 30.9951 20L33.1468 20.0038C33.6173 20.0046 34 20.4181 34 20.9254V23.6559C34 24.1641 33.6168 24.5775 33.1456 24.5775L31.6969 24.5781C31.255 24.5781 31.1425 24.6736 31.1185 24.7029C31.0788 24.7514 31.0316 24.8887 31.0316 25.2678V26.4312H33.0368C33.1877 26.4312 33.334 26.4714 33.4596 26.5471C33.7308 26.7104 33.8993 27.0193 33.8993 27.3532L33.8982 30.2939C33.8982 30.8019 33.5149 31.2153 33.0436 31.2153H31.0316V38.0784C31.0316 38.5866 30.6481 39 30.1768 39V39ZM27.5336 37.8861H29.9986V30.7168C29.9986 30.3774 30.2547 30.1014 30.5692 30.1014H32.8654L32.8663 27.5452H30.5691C30.2545 27.5452 29.9986 27.2692 29.9986 26.9299V25.2678C29.9986 24.8326 30.0396 24.3377 30.3442 23.9658C30.7122 23.5161 31.2923 23.4642 31.6966 23.4642L32.9671 23.4636V21.1173L30.9942 21.1139C28.8599 21.1139 27.5336 22.5872 27.5336 24.9587V26.9299C27.5336 27.2691 27.2777 27.5452 26.9631 27.5452H25.0329V30.1014H26.9631C27.2777 30.1014 27.5336 30.3774 27.5336 30.7168V37.8861ZM33.1448 21.1176H33.145H33.1448Z" fill="white"/>
</svg>
