<svg width="58" height="58" viewBox="0 0 58 58" fill="none" xmlns="http://www.w3.org/2000/svg">
<rect width="58" height="58" rx="29" fill="#E91E1E"/>
<path d="M22.8258 39H34.305C36.3784 39 38.0654 37.3129 38.0654 35.2396V23.7604C38.0654 21.687 36.3784 20 34.305 20H22.8258C20.7525 20 19.0654 21.687 19.0654 23.7604V35.2396C19.0654 37.3129 20.7525 39 22.8258 39ZM20.2529 23.7604C20.2529 22.3417 21.4072 21.1875 22.8258 21.1875H34.305C35.7237 21.1875 36.8779 22.3417 36.8779 23.7604V35.2396C36.8779 36.6582 35.7237 37.8125 34.305 37.8125H22.8258C21.4072 37.8125 20.2529 36.6582 20.2529 35.2396V23.7604Z" fill="white"/>
<path d="M28.5656 34.3538C31.2414 34.3538 33.4185 32.1767 33.4185 29.5009C33.4185 26.825 31.2414 24.6479 28.5656 24.6479C25.8897 24.6479 23.7126 26.825 23.7126 29.5009C23.7126 32.1767 25.8897 34.3538 28.5656 34.3538ZM28.5656 25.8354C30.5867 25.8354 32.231 27.4797 32.231 29.5009C32.231 31.522 30.5867 33.1663 28.5656 33.1663C26.5444 33.1663 24.9001 31.522 24.9001 29.5009C24.9001 27.4797 26.5444 25.8354 28.5656 25.8354V25.8354Z" fill="white"/>
<path d="M33.5987 25.8278C34.3793 25.8278 34.9675 25.242 34.9675 24.4654C34.9675 23.6555 34.3484 23.1029 33.5995 23.1029C32.8189 23.1029 32.2307 23.6887 32.2307 24.4654C32.2307 25.2737 32.8466 25.8278 33.5987 25.8278ZM33.7388 24.3347C33.989 24.5556 33.4182 24.824 33.4182 24.4662C33.4182 24.2524 33.7088 24.3078 33.7388 24.3347Z" fill="white"/>
</svg>
