<svg width="16" height="16" viewBox="0 0 16 16" fill="none" xmlns="http://www.w3.org/2000/svg">
<path d="M11.2553 12.0466L15.0452 15.8366C15.153 15.9445 15.2967 16 15.4405 16C15.5843 16 15.728 15.9445 15.8358 15.8366C16.0547 15.6177 16.0547 15.2616 15.8358 15.0427L12.0459 11.2526C13.0588 10.06 13.6697 8.51787 13.6697 6.83521C13.6697 3.06473 10.6019 0 6.83486 0C3.06784 0 0 3.06477 0 6.83527C0 10.6058 3.06784 13.6705 6.83812 13.6705C8.5207 13.6704 10.0628 13.0594 11.2553 12.0466ZM1.12063 6.83527C1.12063 3.68232 3.68533 1.12075 6.83486 1.12075C9.98438 1.12075 12.5491 3.68559 12.5491 6.83527C12.5491 9.98495 9.98438 12.5498 6.83486 12.5498C3.68533 12.5498 1.12063 9.98489 1.12063 6.83527Z" fill="#101010"/>
</svg>
