<svg width="58" height="58" viewBox="0 0 58 58" fill="none" xmlns="http://www.w3.org/2000/svg">
<rect width="58" height="58" rx="29" fill="#E91E1E"/>
<path d="M36.4286 23.8571C34.3014 23.8571 32.5714 22.1272 32.5714 20H30V32.2143C30 33.9873 28.5587 35.4286 26.7857 35.4286C25.0127 35.4286 23.5714 33.9873 23.5714 32.2143C23.5714 30.4413 25.0127 29 26.7857 29C27.0069 29 27.2203 29.0225 27.4286 29.0656V26.4665C27.2177 26.4434 27.0043 26.4286 26.7857 26.4286C23.5939 26.4286 21 29.0225 21 32.2143C21 35.4061 23.5939 38 26.7857 38C29.9775 38 32.5714 35.4061 32.5714 32.2143V25.13C33.6489 25.9413 34.9796 26.4286 36.4286 26.4286C36.8631 26.4286 37.2926 26.3836 37.7143 26.2955V23.6212C37.2996 23.7691 36.8683 23.8571 36.4286 23.8571Z" stroke="white" stroke-miterlimit="10" stroke-linecap="round" stroke-linejoin="round"/>
</svg>
