<svg width="17" height="17" viewBox="0 0 17 17" fill="none" xmlns="http://www.w3.org/2000/svg">
<path d="M12.2178 17C11.6691 17 11.125 16.903 10.5929 16.7097C8.24893 15.8582 6.07322 14.4714 4.30091 12.6991C2.5286 10.9268 1.14176 8.75106 0.290302 6.40708C0.016686 5.6538 -0.0640607 4.87621 0.0503858 4.09584C0.157594 3.36487 0.440739 2.65524 0.869241 2.04367C1.29964 1.4294 1.87343 0.918494 2.52857 0.56619C3.2272 0.190512 3.98974 0 4.79508 0C5.04556 0 5.26203 0.175007 5.31453 0.419903L6.14836 4.31112C6.18611 4.48732 6.13195 4.67066 6.00456 4.79809L4.57977 6.22284C5.92384 8.89512 8.1048 11.0761 10.7771 12.4201L12.2018 10.9954C12.3293 10.868 12.5126 10.8139 12.6888 10.8516L16.58 11.6854C16.8249 11.7379 16.9999 11.9544 16.9999 12.2048C16.9999 13.0102 16.8094 13.7728 16.4337 14.4714C16.0814 15.1265 15.5705 15.7003 14.9562 16.1307C14.3447 16.5592 13.6351 16.8424 12.9041 16.9496C12.675 16.9832 12.446 17 12.2178 17ZM4.37063 1.0857C3.30834 1.20297 2.36548 1.75976 1.73936 2.65339C1.03528 3.65824 0.8711 4.89417 1.28891 6.04435C2.92589 10.5507 6.4493 14.0741 10.9556 15.7111C12.1058 16.1289 13.3417 15.9647 14.3466 15.2606C15.2402 14.6345 15.797 13.6916 15.9143 12.6294L12.7488 11.951L11.2608 13.439C11.1025 13.5974 10.8619 13.6394 10.6593 13.5442C7.49884 12.0594 4.94057 9.50115 3.45579 6.34067C3.3606 6.13804 3.40264 5.89746 3.56097 5.73916L5.04894 4.25119L4.37063 1.0857Z" fill="black"/>
</svg>
