<svg width="58" height="58" viewBox="0 0 58 58" fill="none" xmlns="http://www.w3.org/2000/svg">
<rect width="58" height="58" rx="29" fill="#E91E1E"/>
<path d="M36.6107 21.2716C36.4564 21.1384 36.2686 21.0499 36.0677 21.0158C35.8667 20.9816 35.6603 21.0031 35.4707 21.0779L20.7103 26.8767C20.4852 26.9651 20.2947 27.1241 20.1675 27.3298C20.0402 27.5355 19.983 27.7768 20.0044 28.0178C20.0258 28.2587 20.1246 28.4862 20.286 28.6663C20.4475 28.8464 20.6629 28.9694 20.9001 29.0168L24.7779 29.7923V34.6065C24.7777 34.828 24.8433 35.0446 24.9663 35.2289C25.0893 35.4131 25.2642 35.5567 25.4689 35.6415C25.6735 35.7263 25.8988 35.7484 26.116 35.7051C26.3333 35.6617 26.5328 35.5549 26.6893 35.3981L28.8703 33.2172L32.1322 36.0877C32.335 36.2678 32.5968 36.3674 32.8681 36.3678C32.9861 36.3676 33.1032 36.349 33.2154 36.3127C33.4005 36.254 33.5669 36.1478 33.6981 36.0047C33.8293 35.8616 33.9207 35.6866 33.9632 35.4971L36.9714 22.3702C37.0172 22.1716 37.0078 21.9643 36.9442 21.7706C36.8807 21.577 36.7653 21.4044 36.6107 21.2716V21.2716ZM20.9604 27.933C20.9552 27.8983 20.9625 27.8628 20.9809 27.833C20.9994 27.8032 21.0278 27.7809 21.0612 27.77L33.4119 22.9179L25.1466 28.8873L21.0883 28.0756C21.0535 28.0708 21.0216 28.0539 20.9982 28.0277C20.9748 28.0016 20.9614 27.968 20.9604 27.933V27.933ZM26.0107 34.7195C25.9883 34.7419 25.9598 34.7572 25.9288 34.7633C25.8978 34.7695 25.8656 34.7663 25.8364 34.7542C25.8072 34.7421 25.7822 34.7216 25.7646 34.6953C25.747 34.669 25.7376 34.6381 25.7376 34.6065V30.4604L28.1484 32.5819L26.0107 34.7195ZM33.0277 35.2827C33.0215 35.3098 33.0084 35.3347 32.9897 35.3551C32.971 35.3756 32.9473 35.3908 32.9209 35.3993C32.8945 35.4078 32.8664 35.4093 32.8393 35.4037C32.8121 35.3981 32.7869 35.3855 32.7661 35.3672L26.0262 29.4359L36.022 22.2168L33.0277 35.2827Z" fill="white"/>
</svg>
