<svg width="58" height="58" viewBox="0 0 58 58" fill="none" xmlns="http://www.w3.org/2000/svg">
<rect width="58" height="58" rx="29" fill="#E91E1E"/>
<path d="M32.7321 27.7415L28.0928 25.203C27.826 25.0571 27.5107 25.0625 27.2492 25.2175C26.9876 25.3725 26.8315 25.6465 26.8315 25.9506V30.984C26.8315 31.2866 26.9866 31.5601 27.2465 31.7153C27.3822 31.7964 27.5326 31.8371 27.6834 31.8371C27.8215 31.8371 27.9599 31.803 28.0873 31.7344L32.7269 29.2397C33.0023 29.0915 33.1742 28.8052 33.1755 28.4923C33.1766 28.1794 33.0068 27.8918 32.7321 27.7415V27.7415ZM28.0622 30.3508V26.5889L31.5296 28.4862L28.0622 30.3508Z" fill="white"/>
<path d="M39.8454 24.4818L39.8444 24.4722C39.8266 24.3032 39.6496 22.7997 38.9187 22.035C38.0739 21.1355 37.1161 21.0263 36.6555 20.9739C36.6174 20.9695 36.5824 20.9655 36.5512 20.9614L36.5145 20.9575C33.7383 20.7557 29.5456 20.7281 29.5036 20.7279L29.4999 20.7278L29.4962 20.7279C29.4543 20.7281 25.2616 20.7557 22.4603 20.9575L22.4233 20.9614C22.3935 20.9654 22.3607 20.9691 22.325 20.9732C21.8696 21.0258 20.9221 21.1352 20.0749 22.0672C19.3788 22.8237 19.1775 24.295 19.1569 24.4603L19.1544 24.4818C19.1482 24.5521 19 26.2266 19 27.9075V29.4789C19 31.1599 19.1482 32.8343 19.1544 32.9048L19.1556 32.9154C19.1734 33.0817 19.3502 34.5576 20.0778 35.3227C20.8721 36.192 21.8765 36.307 22.4168 36.3689C22.5022 36.3786 22.5757 36.387 22.6258 36.3958L22.6744 36.4025C24.2774 36.555 29.3032 36.6302 29.5163 36.6332L29.5227 36.6334L29.5291 36.6332C29.5711 36.6331 33.7636 36.6055 36.5398 36.4036L36.5765 36.3998C36.6116 36.3952 36.651 36.391 36.6943 36.3865C37.147 36.3384 38.0894 36.2386 38.925 35.3193C39.6211 34.5626 39.8225 33.0913 39.843 32.9262L39.8454 32.9047C39.8516 32.8342 40 31.1599 40 29.4789V27.9075C39.9998 26.2266 39.8516 24.5523 39.8454 24.4818V24.4818ZM38.7692 29.4789C38.7692 31.0348 38.6334 32.6371 38.6205 32.7842C38.5683 33.1894 38.356 34.1202 38.0168 34.4889C37.4939 35.0642 36.9567 35.1213 36.5645 35.1628C36.5171 35.1677 36.4732 35.1725 36.4334 35.1775C33.7482 35.3717 29.7138 35.4015 29.528 35.4026C29.3195 35.3996 24.3672 35.3238 22.8131 35.1794C22.7335 35.1665 22.6475 35.1565 22.5568 35.1463C22.0968 35.0936 21.4672 35.0215 20.983 34.4889L20.9716 34.4767C20.6384 34.1295 20.4322 33.2591 20.3798 32.789C20.37 32.6778 20.2306 31.0566 20.2306 29.4789V27.9075C20.2306 26.3534 20.3662 24.7529 20.3793 24.6028C20.4416 24.1255 20.6579 23.251 20.983 22.8976C21.522 22.3048 22.0902 22.2391 22.4661 22.1957C22.502 22.1915 22.5355 22.1877 22.5664 22.1837C25.2907 21.9885 29.3541 21.9595 29.4999 21.9584C29.6457 21.9594 33.7077 21.9885 36.4078 22.1837C36.441 22.1878 36.4772 22.192 36.5161 22.1965C36.9027 22.2405 37.487 22.3072 38.0233 22.8792L38.0282 22.8845C38.3615 23.2316 38.5677 24.1173 38.6201 24.5968C38.6294 24.7018 38.7692 26.3265 38.7692 27.9075V29.4789Z" fill="white"/>
</svg>
